<?xml version="1.0" standalone="no"?>
<!DOCTYPE svg PUBLIC "-//W3C//DTD SVG 20010904//EN"
 "http://www.w3.org/TR/2001/REC-SVG-20010904/DTD/svg10.dtd">
<svg version="1.0" xmlns="http://www.w3.org/2000/svg"
 width="616.000000pt" height="616.000000pt" viewBox="0 0 616.000000 616.000000"
 preserveAspectRatio="xMidYMid meet">
<metadata>
Created by potrace 1.11, written by Peter Selinger 2001-2013
</metadata>
<g transform="translate(0.000000,616.000000) scale(0.100000,-0.100000)"
fill="#000000" stroke="none">
<path d="M1385 4800 c-93 -18 -218 -55 -222 -66 -2 -7 16 -21 41 -33 53 -26
163 -126 190 -172 l19 -32 -34 25 c-49 37 -114 68 -186 89 -173 49 -386 -41
-500 -211 -68 -101 -134 -263 -115 -282 4 -4 25 2 47 12 57 27 168 44 239 36
58 -6 104 -26 60 -26 -38 0 -123 -51 -168 -101 -25 -28 -46 -55 -46 -60 0 -15
16 -10 35 11 16 17 99 50 128 50 5 0 -7 -18 -26 -39 -19 -22 -40 -48 -46 -59
-9 -18 -23 -21 -113 -24 l-103 -3 -65 -47 c-139 -100 -214 -214 -248 -376 -16
-77 -15 -88 2 -209 10 -70 21 -132 26 -136 8 -9 21 3 59 53 23 29 104 77 161
95 22 7 19 2 -18 -36 -51 -53 -82 -113 -82 -160 0 -19 -5 -40 -11 -46 -7 -7
-9 -19 -6 -27 5 -13 21 -2 70 46 34 35 82 74 107 87 l44 24 -22 -31 c-23 -31
-69 -143 -82 -198 -4 -16 -4 -73 0 -126 9 -120 33 -166 136 -269 60 -60 76
-71 84 -59 5 8 10 25 10 38 0 42 41 106 108 170 68 63 90 76 77 45 -54 -127
-45 -241 24 -313 37 -39 79 -56 162 -67 l45 -5 -4 60 c-4 50 0 70 23 119 l27
58 15 -42 c15 -44 92 -123 120 -123 8 0 12 4 9 8 -18 29 65 172 99 172 7 0 21
-24 31 -52 62 -190 143 -355 204 -411 24 -23 29 -34 24 -55 -27 -117 -170
-228 -324 -251 -193 -30 -334 -73 -424 -128 -60 -37 -136 -121 -164 -181 -25
-55 -26 -94 -6 -229 6 -40 8 -43 38 -43 29 0 34 4 43 38 l10 37 2 -37 1 -38
83 0 83 0 17 53 c20 61 60 124 102 159 35 29 265 153 265 143 0 -4 -28 -41
-63 -84 -77 -93 -147 -190 -147 -205 0 -6 -7 -23 -14 -38 l-15 -28 198 0 198
0 11 37 c13 43 92 175 92 155 0 -8 -6 -37 -14 -65 -8 -29 -17 -69 -21 -89 l-6
-38 460 0 459 0 31 26 c30 25 31 25 31 5 0 -12 5 -21 11 -21 26 0 1 161 -55
360 -31 107 -60 209 -66 226 -15 47 -13 58 21 78 39 23 162 116 171 130 16 23
-14 16 -50 -12 -121 -95 -261 -172 -313 -172 -76 0 -616 239 -672 298 -41 44
-102 167 -155 314 -28 75 -64 157 -81 181 -37 54 -37 57 -11 57 23 0 25 13 9
58 -7 20 -7 37 -1 48 8 14 18 0 57 -75 49 -96 85 -134 119 -129 17 2 22 11 24
51 4 63 -19 140 -63 205 -19 30 -35 55 -35 57 0 2 9 1 20 -2 22 -6 25 0 10 27
-13 24 -63 35 -90 20 -28 -15 -80 -129 -80 -174 0 -19 -5 -38 -12 -42 -14 -9
-78 62 -78 87 0 10 -9 24 -20 32 -10 7 -29 26 -41 41 l-22 28 77 -5 c41 -3 78
-1 81 4 3 5 -10 23 -30 40 -38 34 -60 67 -51 76 3 4 15 -2 26 -12 26 -24 32
-16 18 23 -14 37 -5 51 22 34 28 -17 33 -15 26 13 -5 21 -3 25 18 25 13 0 29
-7 37 -16 34 -42 221 -108 243 -87 3 3 -9 31 -27 62 -29 50 -32 64 -32 136 1
50 7 99 18 130 23 63 113 215 128 215 2 0 4 -42 5 -93 0 -50 6 -105 12 -121
13 -29 22 -30 26 -3 1 9 18 39 36 67 25 37 64 72 140 125 58 40 122 91 143
114 42 45 55 50 63 24 18 -54 31 -80 57 -110 31 -36 54 -45 38 -15 -8 15 -15
101 -12 137 1 6 16 -7 34 -28 23 -27 55 -47 117 -72 81 -33 124 -67 156 -121
11 -18 13 -17 23 9 14 35 14 117 1 152 -6 15 -7 25 -3 23 48 -23 60 -33 71
-57 6 -15 52 -62 100 -104 78 -67 91 -84 105 -129 30 -101 66 -193 75 -196 14
-4 23 129 11 171 -13 49 11 134 50 170 69 65 194 58 264 -15 29 -29 65 -117
72 -172 9 -68 -8 -134 -56 -233 -47 -94 -51 -96 -189 -112 -145 -17 -183 -28
-221 -67 -31 -32 -34 -40 -32 -90 l2 -54 -47 0 c-111 0 -175 -49 -175 -135 0
-46 19 -105 35 -105 5 0 4 9 -2 19 -5 11 -10 38 -10 59 0 33 6 45 36 72 20 17
38 30 40 27 2 -2 -5 -21 -16 -42 -22 -43 -26 -114 -9 -148 14 -27 60 -77 70
-77 4 0 1 21 -8 46 -31 90 20 179 119 209 73 21 75 20 34 -29 -20 -24 -40 -56
-46 -71 -23 -60 -5 -143 37 -170 22 -15 24 -21 18 -53 -4 -20 -15 -49 -26 -63
-13 -19 -16 -30 -9 -34 13 -8 13 -8 28 20 10 19 11 18 22 -10 15 -39 27 -95
38 -173 8 -62 7 -65 -25 -115 -18 -29 -33 -64 -33 -78 0 -15 11 -71 25 -125
34 -132 32 -164 -9 -238 -60 -109 -86 -188 -86 -260 0 -36 4 -66 9 -66 5 0 8
33 8 73 0 69 3 80 57 191 49 102 61 120 89 130 18 6 56 23 85 37 29 14 54 23
57 20 2 -4 7 -45 11 -93 5 -62 2 -106 -9 -159 -9 -41 -18 -92 -21 -114 -4 -35
-2 -33 16 20 17 49 21 84 21 190 1 72 0 150 -2 174 -2 37 2 49 30 77 42 43
141 95 182 95 17 0 74 -3 125 -7 58 -4 115 -2 152 5 49 10 65 9 92 -3 18 -8
94 -75 169 -148 l136 -133 86 -177 c47 -98 90 -178 95 -178 16 0 36 112 38
211 1 82 6 103 30 153 16 32 35 61 43 64 19 7 50 -34 74 -96 17 -47 17 -47 13
-10 -3 21 -11 50 -20 65 -42 78 -41 74 -22 85 9 5 42 30 72 54 45 37 58 43 74
34 24 -13 50 -13 50 0 0 6 -9 10 -19 10 -32 0 -34 19 -8 58 14 20 34 55 44 77
16 36 22 40 63 45 61 7 136 -10 190 -45 25 -15 98 -77 162 -138 152 -142 176
-191 212 -433 9 -56 18 -109 22 -118 5 -14 39 -16 325 -16 284 0 319 2 327 16
17 30 115 124 169 161 l53 36 0 102 0 102 -42 11 c-81 20 -93 22 -258 32 -205
13 -304 32 -400 77 l-75 36 72 17 c82 19 159 55 249 115 65 44 116 59 187 56
49 -1 88 -22 125 -67 38 -45 46 -85 27 -130 -25 -61 7 -35 42 34 65 127 50
310 -34 403 -20 21 -46 42 -59 45 -45 11 -13 24 61 24 40 0 80 3 89 6 14 5 16
61 16 524 l0 518 -87 12 c-53 8 -123 10 -182 6 -53 -4 -136 -9 -186 -12 l-90
-5 46 24 c59 32 177 113 209 145 14 14 57 48 95 77 65 48 98 64 168 79 l27 6
0 300 0 299 -47 22 c-27 11 -95 33 -153 47 -91 22 -113 32 -165 73 -75 58
-136 89 -245 124 -105 33 -287 45 -395 26 -39 -7 -106 -16 -150 -21 -91 -10
-208 -47 -310 -98 -85 -42 -139 -79 -227 -152 -74 -62 -188 -130 -279 -167
-134 -54 -357 -98 -457 -91 -55 4 -65 8 -117 54 -143 126 -239 203 -309 252
-42 28 -79 52 -81 52 -2 0 -28 14 -57 31 -82 48 -284 126 -377 145 -70 14
-124 16 -310 11 -205 -4 -235 -7 -326 -32 -132 -35 -127 -35 -137 5 -18 66
-70 122 -167 177 -79 46 -118 44 -68 -4 22 -20 77 -122 77 -142 0 -5 -27 19
-60 53 -33 35 -84 76 -112 91 -46 25 -64 29 -153 31 -55 2 -122 -1 -150 -6z
m4292 -352 c68 -22 61 -28 -28 -28 -47 0 -111 -5 -143 -11 -55 -10 -58 -9 -83
15 -14 14 -31 26 -37 27 -6 0 -2 5 9 10 27 12 230 3 282 -13z m-344 -78 c4 -4
-7 -13 -25 -20 -92 -36 -177 -76 -317 -149 -85 -45 -156 -80 -157 -78 -2 1 24
24 57 49 33 25 86 70 117 99 63 60 129 99 182 110 39 7 130 1 143 -11z m-1646
-600 c19 -22 44 -40 55 -40 11 0 37 -13 57 -29 20 -15 68 -49 107 -73 60 -39
74 -54 97 -102 15 -31 27 -59 27 -61 0 -2 20 -48 45 -101 25 -53 45 -105 45
-116 0 -12 -13 -64 -29 -117 -49 -159 -72 -261 -65 -284 5 -16 12 3 25 67 10
48 30 129 45 180 44 146 43 173 -6 278 -24 49 -40 92 -36 95 3 4 8 4 10 2 14
-15 116 -252 116 -270 0 -11 -16 -78 -36 -148 -44 -150 -67 -290 -52 -308 10
-13 9 -14 -11 -17 -14 -2 -54 -56 -47 -63 3 -4 18 4 33 18 l26 24 -19 -34
c-10 -19 -32 -41 -48 -50 -16 -9 -63 -43 -106 -76 -181 -140 -344 -255 -360
-255 -6 0 -5 -11 0 -26 6 -14 8 -29 5 -33 -2 -4 -32 -2 -67 5 -175 37 -335 2
-416 -91 -17 -19 -35 -35 -40 -35 -5 0 -12 29 -16 65 -4 36 -16 89 -27 118
-14 35 -22 77 -22 127 -1 72 1 80 56 192 50 103 64 123 112 161 51 40 162 100
335 180 78 37 200 120 200 137 0 5 13 24 29 42 15 18 34 51 41 73 7 22 26 67
42 99 l29 59 -21 22 c-11 12 -20 29 -20 38 0 9 -5 19 -11 22 -7 5 -9 -4 -7
-26 3 -33 1 -35 -52 -53 -65 -22 -111 -17 -161 17 -27 18 -34 30 -32 52 3 37
12 44 59 52 21 3 47 15 58 25 11 10 23 18 27 18 3 0 33 16 65 35 38 23 70 35
95 35 33 0 41 -6 80 -57 23 -32 58 -75 77 -95 43 -45 43 -63 9 -193 -32 -120
-42 -191 -33 -239 9 -49 31 -48 22 2 -6 38 12 158 45 291 21 86 16 103 -50
177 -20 22 -54 62 -75 88 -36 45 -41 48 -77 43 -21 -3 -52 -12 -69 -21 -30
-14 -33 -14 -62 7 -58 42 -99 162 -66 195 19 19 29 15 65 -28z m-2313 -513
c28 -51 32 -67 16 -67 -10 0 -36 55 -47 99 -8 33 -2 27 31 -32z m2836 -173
c11 -48 6 -72 -33 -149 -17 -33 -40 -85 -53 -115 -34 -81 -31 -28 7 116 17 66
36 138 42 161 13 48 24 44 37 -13z m-2660 -177 c13 -24 13 -30 0 -54 -23 -40
-37 -38 -60 7 -20 40 -21 43 -4 61 23 25 44 21 64 -14z m2035 -838 c68 -12
105 -32 105 -55 0 -13 -7 -15 -32 -10 -18 4 -96 9 -174 13 l-141 6 -71 -33
c-54 -25 -89 -51 -154 -116 -46 -46 -84 -89 -86 -94 -5 -14 -32 -12 -32 3 0 6
-3 21 -6 33 -4 16 11 39 66 97 139 149 204 180 365 172 55 -2 127 -10 160 -16z
m901 -41 c-23 -35 -54 -88 -70 -119 -24 -48 -36 -61 -82 -83 -29 -15 -63 -36
-75 -49 -20 -22 -59 -98 -74 -147 -10 -30 -35 -70 -44 -70 -4 0 -13 11 -20 24
-12 21 -9 34 20 106 33 80 35 83 89 109 45 22 62 37 97 91 104 160 139 198
185 200 12 0 6 -15 -26 -62z m-1386 -32 c0 -2 -8 -10 -17 -17 -16 -13 -17 -12
-4 4 13 16 21 21 21 13z m2580 -15 c0 -8 -85 -42 -99 -40 -5 0 90 49 97 49 1
0 2 -4 2 -9z m-1372 -76 c-3 -3 -9 2 -12 12 -6 14 -5 15 5 6 7 -7 10 -15 7
-18z m-1258 -205 c0 -5 -5 -10 -11 -10 -5 0 -7 5 -4 10 3 6 8 10 11 10 2 0 4
-4 4 -10z m1240 -267 c-15 -124 -23 -139 -46 -91 -17 36 -17 37 16 118 18 44
35 79 37 76 3 -2 -1 -48 -7 -103z"/>
<path d="M2050 3533 c-60 -30 -79 -46 -97 -78 -27 -51 -27 -55 -2 -55 16 0 19
-4 14 -20 -4 -14 -2 -20 9 -20 16 0 46 48 46 75 0 25 17 17 25 -12 13 -55 75
-169 113 -210 62 -66 115 -71 145 -13 26 50 17 143 -23 228 -17 36 -38 71 -48
78 -30 22 -5 27 51 9 34 -10 74 -34 103 -60 l49 -43 23 25 c26 28 28 37 7 29
-20 -7 -19 3 2 26 21 24 12 32 -21 17 -23 -11 -34 -8 -92 21 -54 28 -79 34
-147 38 -79 4 -85 2 -157 -35z m158 -38 c18 -39 15 -58 -18 -103 -54 -74 -116
-49 -127 51 -5 40 -3 43 28 59 19 9 50 17 70 17 29 1 38 -4 47 -24z m50 -102
c-5 -25 -28 -28 -28 -4 0 12 6 21 16 21 9 0 14 -7 12 -17z"/>
<path d="M3110 3490 c-39 -42 -56 -150 -18 -112 17 17 64 15 82 -3 22 -22 30
-97 16 -140 -7 -20 -9 -39 -6 -42 18 -18 42 62 38 121 -5 56 -48 109 -84 105
-44 -6 -36 40 12 70 25 15 39 17 63 10 44 -13 51 -11 37 6 -8 10 -30 15 -62
15 -43 0 -54 -4 -78 -30z"/>
<path d="M3270 3296 c0 -62 -17 -90 -88 -138 -59 -40 -71 -56 -72 -90 0 -38
14 -35 25 4 7 22 27 44 64 70 30 20 61 47 68 60 21 38 34 96 27 123 -11 43
-24 28 -24 -29z"/>
<path d="M3060 3305 c0 -7 5 -17 11 -20 6 -4 9 -34 7 -72 -2 -47 1 -67 10 -70
9 -4 11 2 6 20 -3 14 -1 41 5 60 8 23 8 43 2 59 -11 29 -41 46 -41 23z"/>
<path d="M2295 3143 c-49 -25 -85 -48 -79 -50 13 -4 140 60 164 83 20 20 16
18 -85 -33z"/>
<path d="M1742 2717 c-12 -13 -22 -31 -22 -39 0 -15 78 -88 94 -88 17 0 2 22
-29 42 -43 28 -50 46 -29 69 25 28 12 44 -14 16z"/>
<path d="M1646 2617 c-15 -19 -26 -38 -26 -42 0 -11 49 35 61 58 17 30 -8 19
-35 -16z"/>
<path d="M2100 2546 c-70 -34 -92 -47 -87 -52 5 -5 157 63 157 71 0 10 -25 3
-70 -19z"/>
<path d="M1940 2460 c0 -5 7 -10 15 -10 8 0 15 5 15 10 0 6 -7 10 -15 10 -8 0
-15 -4 -15 -10z"/>
<path d="M4922 1503 c5 -20 178 -233 189 -233 10 0 -8 25 -97 135 -51 62 -96
110 -92 98z"/>
<path d="M3810 1383 c0 -11 78 -113 86 -113 7 0 -4 16 -44 70 -43 56 -42 55
-42 43z"/>
</g>
</svg>
